<?xml version="1.0" encoding="UTF-8"?>
<svg width="44px" height="44px" viewBox="0 0 44 44" version="1.1" xmlns="http://www.w3.org/2000/svg" xmlns:xlink="http://www.w3.org/1999/xlink">
    <!-- Generator: Sketch 55 (78076) - https://sketchapp.com -->
    <title>icon/操作/已点赞</title>
    <desc>Created with Sketch.</desc>
    <g id="icon/操作/已点赞" stroke="none" stroke-width="1" fill="none" fill-rule="evenodd">
        <g id="编组-2" transform="translate(4.000000, 6.000000)" fill="#DC5A58">
            <g id="编组">
                <path d="M26.4806776,31.8206579 L23.8527586,31.8206579 C23.2611553,31.8206579 22.7810135,31.3405161 22.7810135,30.7489128 C22.7810135,30.1573095 23.2611553,29.6771677 23.8527586,29.6771677 L26.4806776,29.6771677 C28.126878,29.6771677 29.5930253,28.6311445 30.1246109,27.0706836 L33.7856921,16.3532328 C33.9228755,15.9502566 33.8585707,15.5215586 33.6142129,15.1743132 C33.365568,14.8313548 32.9840268,14.6341537 32.5596157,14.6341537 L24.7830334,14.6341537 C23.9727941,14.6341537 23.2268595,14.1883077 22.8410313,13.476669 C22.45949,12.7650302 22.4937859,11.9076342 22.9353448,11.2302913 C24.4829447,8.87245209 25.288897,6.85328434 25.4732372,4.86841245 C25.6189945,3.3079516 24.641563,2.47627741 23.762732,2.23620652 C22.7209958,1.95326581 21.1948308,2.28765028 20.3117129,4.16534767 C19.9987633,4.8341166 19.5400564,6.03875808 18.9570271,7.74068928 C17.5423236,11.8647644 13.6583194,14.6341537 9.2898864,14.6341537 L4.2526845,14.6341537 C3.09091283,14.6341537 2.14349017,15.5815763 2.14349017,16.743348 L2.14349017,27.5679734 C2.14349017,28.729745 3.09091283,29.6771677 4.2526845,29.6771677 L18.2625363,29.6771677 C18.8541395,29.6771677 19.3342813,30.1573095 19.3342813,30.7489128 C19.3342813,31.3405161 18.8541395,31.8206579 18.2625363,31.8206579 L4.2526845,31.8206579 C1.90770625,31.8206579 0,29.9129516 0,27.5679734 L0,16.739061 C0,14.3940828 1.90770625,12.4863765 4.2526845,12.4863765 L9.29417338,12.4863765 C12.7451926,12.4863765 15.8146705,10.3000165 16.9335724,7.04191148 C17.5423236,5.26710162 18.0267523,3.98958148 18.3739977,3.25222086 C18.974175,1.97041373 19.8915888,1.01013014 21.0233516,0.469970614 C22.0608008,-0.0230321252 23.2354335,-0.134493614 24.3286134,0.16559501 C25.3317668,0.439961752 26.2105978,1.04442598 26.7979141,1.86752621 C27.4409612,2.7635051 27.7196149,3.86954603 27.6081534,5.06561354 C27.3895174,7.41059179 26.4763906,9.7427091 24.7273026,12.4049239 C24.7187287,12.4177848 24.7101547,12.4263588 24.7273026,12.4563677 C24.7444505,12.4906635 24.7658854,12.4906635 24.7830334,12.4906635 L32.5596157,12.4906635 C33.6828046,12.4906635 34.7031059,13.0136751 35.3590139,13.9310889 C36.0020609,14.8313548 36.1735401,15.9974134 35.8177208,17.0477236 L32.1566396,27.7651745 C31.3249654,30.1916053 29.0442918,31.8206579 26.4806776,31.8206579 Z" id="Path"></path>
                <path d="M25.9506352,30.375 L23.4869612,30.375 C23.0806723,30.375 18.8007558,30.375 18.2461277,30.375 L5.11189172,30.375 C2.91347461,30.375 1.125,28.6214094 1.125,26.4658721 L1.125,16.5117823 C1.125,14.356245 2.91347461,12.6026544 5.11189172,12.6026544 L9.83828755,12.6026544 C13.073618,12.6026544 15.9512536,10.5929213 17.0002241,7.5980249 C17.5709283,5.96659451 18.0250803,4.79227987 18.3506229,4.11448754 C18.9132891,2.93623225 19.7733645,2.05352595 20.8343921,1.55700365 C21.8070008,1.10382854 22.9082189,1.00137156 23.9330751,1.27721728 C24.8735314,1.52941908 25.6974355,2.08505117 26.2480445,2.84165657 C26.8509011,3.66525308 27.112139,4.68194159 27.0076438,5.78138381 C26.8026726,7.93692107 25.9466162,10.0806364 24.3068462,12.527782 C24.2988081,12.5396039 24.29077,12.5474852 24.3068462,12.5750698 C24.3229224,12.606595 24.3430176,12.606595 24.3590938,12.606595 L31.6496397,12.606595 C32.7026293,12.606595 33.6591618,13.0873547 34.2740755,13.9306545 C34.8769321,14.7581916 35.0376939,15.8300493 34.7041132,16.7955093 L31.2718496,26.6471421 C30.492155,28.8775518 28.3540236,30.375 25.9506352,30.375 Z" id="Path" opacity="0.3"></path>
            </g>
            <path d="M9.5,26.0906064 C8.672,26.0906064 8,25.6378121 8,25.0799049 L8,14.0107015 C8,13.4527943 8.672,13 9.5,13 C10.328,13 11,13.4527943 11,14.0107015 L11,25.0799049 C11,25.6378121 10.328,26.0906064 9.5,26.0906064 Z" id="Path"></path>
        </g>
    </g>
</svg>