<?xml version="1.0" encoding="UTF-8"?>
<svg width="44px" height="44px" viewBox="0 0 44 44" version="1.1" xmlns="http://www.w3.org/2000/svg" xmlns:xlink="http://www.w3.org/1999/xlink">
    <!-- Generator: Sketch 55 (78076) - https://sketchapp.com -->
    <title>icon/勾选</title>
    <desc>Created with Sketch.</desc>
    <g id="icon/勾选" stroke="none" stroke-width="1" fill="none" fill-rule="evenodd">
        <g id="小图标/多选/已勾选" transform="translate(2.000000, 2.000000)">
            <path d="M40,20.2469136 C40,8.95407407 31.0459259,0 19.7530864,0 C8.95407407,0 0,8.95407407 0,20.2469136 C0,31.0459259 8.95407407,40 19.7530864,40 C31.0459259,40 40,31.0459259 40,20.2469136 Z" id="Fill-" fill="#DC5A58"></path>
            <path d="M9.93638174,20.9248414 C9.54922567,20.5263042 9.5060434,19.8369073 9.83255545,19.3950127 L9.80520579,19.4320272 C10.1350202,18.9856633 10.7619191,18.8978954 11.2015521,19.2330407 L15.3507175,22.3960729 C15.7920839,22.7325395 16.4967554,22.7178768 16.9134942,22.3725627 L28.8706145,12.464769 C29.2923458,12.115318 29.9531184,12.1452783 30.3533801,12.5384543 L30.0820871,12.271964 C30.4792646,12.6621102 30.4815911,13.291281 30.084636,13.6798477 L16.8660571,26.6190939 C16.4702873,27.0065004 15.8344025,26.996244 15.4484444,26.5989401 L9.93638174,20.9248414 Z" id="Fill-" fill="#FFFFFF"></path>
        </g>
    </g>
</svg>