<?xml version="1.0" encoding="UTF-8"?>
<svg width="48px" height="48px" viewBox="0 0 48 48" version="1.1" xmlns="http://www.w3.org/2000/svg" xmlns:xlink="http://www.w3.org/1999/xlink">
    <!-- Generator: Sketch 55 (78076) - https://sketchapp.com -->
    <title>icon/通用/我的/购物车</title>
    <desc>Created with Sketch.</desc>
    <g id="icon/通用/我的/购物车" stroke="none" stroke-width="1" fill="none" fill-rule="evenodd">
        <path d="M17.3271952,37.7942249 C16.1823521,37.7942249 15.2551042,38.7304426 15.2551042,39.8863603 C15.2551042,41.0422781 16.1823521,41.9784958 17.3271952,41.9784958 C18.4720383,41.9784958 19.3992862,41.0422781 19.3992862,39.8863603 C19.3992862,38.7304426 18.4720383,37.7942249 17.3271952,37.7942249 Z M35.1226635,37.7942249 C33.9778204,37.7942249 33.0505725,38.7304426 33.0505725,39.8863603 C33.0505725,41.0422781 33.9778204,41.9784958 35.1226635,41.9784958 C36.2675066,41.9784958 37.1947545,41.0422781 37.1947545,39.8863603 C37.1947545,38.7304426 36.2675066,37.7942249 35.1226635,37.7942249 Z M38.2808766,35.7648609 L17.1629317,35.7648609 C16.3017772,35.7648609 15.4601102,35.4310665 14.7929246,34.8249432 C14.125006,34.2181669 13.699085,33.3994825 13.593715,32.5197678 L13.5935425,32.5182878 L11.387885,16.8398742 L10.1339641,9.51890206 L10.1314635,9.5007497 C10.0346299,8.79463603 9.39477844,8.19808948 8.73423234,8.19808948 L7.07784431,8.19808948 C6.48257246,8.19808948 6,7.71084885 6,7.10981862 C6,6.50878839 6.48257246,6.02154776 7.07784431,6.02154776 L8.73418922,6.02154776 C10.464,6.02154776 12.0105772,7.40839661 12.2639569,9.18245224 L13.5174467,16.5009432 L15.7336671,32.2575816 C15.7765222,32.6154486 15.9544527,32.9522902 16.2347353,33.2069456 C16.5054898,33.4528948 16.8350946,33.5883628 17.1628886,33.5883628 L38.2808335,33.5883628 C38.8761485,33.5883628 39.3586778,34.0756034 39.3586778,34.6766336 C39.3586778,35.2776638 38.8761916,35.7648609 38.2808766,35.7648609 Z M18.7846132,30.4325079 C18.2253413,30.4325079 17.7525988,29.9963724 17.7108216,29.4242031 C17.6670611,28.8247836 18.1128575,28.3030665 18.706491,28.2588392 L36.3345485,26.9468634 L36.3599856,26.9461669 C37.0586443,26.9275357 37.6794395,26.3822249 37.7732982,25.7046239 L37.7789892,25.6680145 L39.8223234,13.8633664 C39.8230132,13.8596227 39.8233581,13.8567932 39.823703,13.8539637 C39.8838467,13.3439565 39.7400623,12.8199758 39.4484838,12.4860073 C39.2484359,12.2574704 38.9856144,12.1361499 38.689121,12.1361499 L16.1787305,12.1361499 C15.5834587,12.1361499 15.1008862,11.6489093 15.1008862,11.0478791 C15.1008862,10.4468489 15.5834587,9.95960822 16.1787305,9.95960822 L38.689121,9.95960822 C39.6081341,9.95960822 40.4518707,10.3453349 41.064776,11.0457896 C41.7607186,11.8428827 42.0967473,12.9883531 41.9643449,14.1108392 C41.9593112,14.1537543 41.953086,14.1965184 41.9456766,14.239081 L39.9054036,26.0262297 C39.6582754,27.736948 38.1765844,29.0613736 36.444618,29.1211415 L18.8649772,30.4295042 C18.8382347,30.4314986 18.8114286,30.4325004 18.7846132,30.4325079 L18.7846132,30.4325079 Z" id="形状" fill="#666666" fill-rule="nonzero"></path>
    </g>
</svg>