<?xml version="1.0" encoding="UTF-8"?>
<svg width="246px" height="40px" viewBox="0 0 246 40" version="1.1" xmlns="http://www.w3.org/2000/svg" xmlns:xlink="http://www.w3.org/1999/xlink">
    <!-- Generator: Sketch 55 (78076) - https://sketchapp.com -->
    <title>icon/标签/满减券-底</title>
    <desc>Created with Sketch.</desc>
    <defs>
        <path d="M246,28 C244.343146,28 243,29.3431458 243,31 C243,32.6568542 244.343146,34 246,34 L246,40 L1.20792265e-12,40 L1.20792265e-12,34.8292943 C0.312778925,34.9398458 0.649364577,35 1,35 C2.65685425,35 4,33.6568542 4,32 C4,30.3431458 2.65685425,29 1,29 C0.649364577,29 0.312778925,29.0601542 1.20486954e-12,29.1707057 L1.20792265e-12,22.8292943 C0.312778925,22.9398458 0.649364577,23 1,23 C2.65685425,23 4,21.6568542 4,20 C4,18.3431458 2.65685425,17 1,17 C0.649364577,17 0.312778925,17.0601542 -3.16413562e-15,17.1707057 L1.20792265e-12,10.8292943 C0.312778925,10.9398458 0.649364577,11 1,11 C2.65685425,11 4,9.65685425 4,8 C4,6.34314575 2.65685425,5 1,5 C0.649364577,5 0.312778925,5.06015422 1.2044532e-12,5.17070571 L1.20792265e-12,0 L246,0 L246,4 C244.343146,4 243,5.34314575 243,7 C243,8.65685425 244.343146,10 246,10 L246,16 C244.343146,16 243,17.3431458 243,19 C243,20.6568542 244.343146,22 246,22 L246,28 Z" id="path-1"></path>
        <path d="M246,28 C244.343146,28 243,29.3431458 243,31 C243,32.6568542 244.343146,34 246,34 L246,40 L1.49213975e-12,40 L1.49213975e-12,34.8292943 C0.312778925,34.9398458 0.649364577,35 1,35 C2.65685425,35 4,33.6568542 4,32 C4,30.3431458 2.65685425,29 1,29 C0.649364577,29 0.312778925,29.0601542 1.48908663e-12,29.1707057 L1.49213975e-12,22.8292943 C0.312778925,22.9398458 0.649364577,23 1,23 C2.65685425,23 4,21.6568542 4,20 C4,18.3431458 2.65685425,17 1,17 C0.649364577,17 0.312778925,17.0601542 2.81052959e-13,17.1707057 L1.49213975e-12,10.8292943 C0.312778925,10.9398458 0.649364577,11 1,11 C2.65685425,11 4,9.65685425 4,8 C4,6.34314575 2.65685425,5 1,5 C0.649364577,5 0.312778925,5.06015422 1.4886703e-12,5.17070571 L1.49213975e-12,0 L246,0 L246,4 C244.343146,4 243,5.34314575 243,7 C243,8.65685425 244.343146,10 246,10 L246,16 C244.343146,16 243,17.3431458 243,19 C243,20.6568542 244.343146,22 246,22 L246,28 Z" id="path-3"></path>
    </defs>
    <g id="icon/标签/满减券-底" stroke="none" stroke-width="1" fill="none" fill-rule="evenodd">
        <g id="编组-12">
            <g id="矩形">
                <mask id="mask-2" fill="white">
                    <use xlink:href="#path-1"></use>
                </mask>
                <use id="蒙版" fill="#DC5A58" xlink:href="#path-1"></use>
                <rect fill="#FFFFFF" mask="url(#mask-2)" x="72" y="2" width="174" height="36"></rect>
                <mask id="mask-4" fill="white">
                    <use xlink:href="#path-3"></use>
                </mask>
                <path stroke="#DC5A58" stroke-width="2" d="M245,27.1260175 L245,22.8739825 C243.274773,22.4299397 242,20.8638394 242,19 C242,17.1361606 243.274773,15.5700603 245,15.1260175 L245,10.8739825 C243.274773,10.4299397 242,8.86383943 242,7 C242,5.13616057 243.274773,3.57006028 245,3.12601749 L245,1 L1,1 L1,4 C3.209139,4 5,5.790861 5,8 C5,10.209139 3.209139,12 1,12 L1,16 C3.209139,16 5,17.790861 5,20 C5,22.209139 3.209139,24 1,24 L1,28 C3.209139,28 5,29.790861 5,32 C5,34.209139 3.209139,36 1,36 L1,39 L245,39 L245,34.8739825 C243.274773,34.4299397 242,32.8638394 242,31 C242,29.1361606 243.274773,27.5700603 245,27.1260175 Z"></path>
            </g>
        </g>
    </g>
</svg>