<?xml version="1.0" encoding="UTF-8"?>
<svg width="48px" height="48px" viewBox="0 0 48 48" version="1.1" xmlns="http://www.w3.org/2000/svg" xmlns:xlink="http://www.w3.org/1999/xlink">
    <!-- Generator: Sketch 55 (78076) - https://sketchapp.com -->
    <title>icon/通用/我的/活动</title>
    <desc>Created with Sketch.</desc>
    <g id="icon/通用/我的/活动" stroke="none" stroke-width="1" fill="none" fill-rule="evenodd">
        <path d="M40.8495444,13.2582824 L35.4976419,13.2582824 C36.1783478,12.0482776 36.4992921,10.6693776 36.4227849,9.28351284 C36.4101287,7.96603527 35.8433122,6.71462894 34.8609844,5.83540031 C32.7321607,4.17593402 28.8226854,5.090131 25.9079876,7.93209122 C25.0941189,8.73469793 24.4215111,9.66860297 23.9184328,10.694556 C23.415518,9.66850512 22.7428916,8.7345741 21.9288779,7.93209122 C19.063919,5.090131 15.1544437,4.16599707 12.9758812,5.83540031 C12.0438476,6.73487515 11.5254315,7.97915506 11.5434017,9.27357594 C11.4668945,10.6594407 11.7878388,12.0383407 12.4685447,13.2483455 L7.1066944,13.2483455 C6.2835405,13.2483454 5.49410084,13.5749854 4.91204314,14.1564082 C4.32998544,14.737831 4.00298882,15.5264096 4.00298882,16.3486657 L4.00298882,19.4291121 C4.00298882,20.2513681 4.32998544,21.0399467 4.91204314,21.6213696 C5.49410084,22.2027924 6.2835405,22.5294323 7.1066944,22.5294323 L7.56429198,22.5294323 L7.56429198,37.1863949 C7.56976579,40.032405 9.87806914,42.3381906 12.7271868,42.3436584 L35.1793132,42.3436584 C36.5563952,42.3542426 37.8808592,41.8158834 38.859289,40.8478469 C39.8377188,39.8798103 40.3893393,38.5620132 40.3919468,37.1863949 L40.3919468,22.5294323 L40.8992833,22.5294323 C41.7224372,22.5294323 42.5118768,22.2027924 43.0939345,21.6213695 C43.6759922,21.0399467 44.0029888,20.2513681 44.0029888,19.4291121 L44.0029888,16.3486657 C44.0004348,15.5194527 43.6654483,14.7258191 43.072882,14.1451027 C42.4803157,13.5643863 41.6795601,13.2449897 40.8495444,13.2582824 L40.8495444,13.2582824 Z M27.4598403,9.39281904 C29.9169406,6.95827271 32.672474,6.69991266 33.6374081,7.40543424 C34.1529631,7.93678263 34.4326339,8.65310498 34.4133345,9.39281904 C34.4808487,10.8065082 33.991663,12.1904282 33.0504895,13.2483455 L25.2116434,13.2483455 C25.6028877,11.7856702 26.379184,10.4543675 27.4598403,9.39281904 L27.4598403,9.39281904 Z M13.642382,9.39281904 C13.6230827,8.65310499 13.9027534,7.93678263 14.4183084,7.40543424 C15.4130858,6.65022803 18.138776,6.90858803 20.5958762,9.39281904 C21.6607151,10.4623793 22.4197668,11.7969905 22.7943343,13.2582824 L14.9554882,13.2582824 C14.0143147,12.2003651 13.525129,10.8164451 13.5926432,9.40275594 L13.642382,9.39281904 Z M6.07212587,19.4291121 L6.07212587,16.3486657 C6.07212589,15.7998645 6.51750292,15.3549733 7.06690331,15.3549733 L22.9435509,15.3549733 L22.9435509,20.5022999 L7.1066944,20.5022999 C6.8216349,20.5146356 6.54499598,20.4041076 6.34708137,20.1988051 C6.14916676,19.9935026 6.04903236,19.7131927 6.07212587,19.4291121 Z M9.68316791,37.1863949 L9.68316791,22.5294323 L22.9435509,22.5294323 L22.9435509,39.5116351 C22.9430704,39.8071913 23.0743242,40.0876225 23.3016707,40.2767783 L12.7769257,40.2767783 C11.0705573,40.2713238 9.68862832,38.8909021 9.68316791,37.1863949 L9.68316791,37.1863949 Z M38.2830187,37.1863949 C38.2830187,38.008651 37.9560221,38.7972296 37.3739644,39.3786524 C36.7919067,39.9600752 36.002467,40.2867152 35.1793132,40.2867152 L24.6446203,40.2867152 C24.8719668,40.0975594 25.0032206,39.8171282 25.0027401,39.5215721 L25.0027401,22.5294323 L38.2730709,22.5294323 L38.2730709,37.1863949 L38.2830187,37.1863949 Z M41.8841129,19.4291121 C41.8841129,19.9779132 41.4387359,20.4228045 40.8893355,20.4228045 L25.0126879,20.4228045 L25.0126879,15.3251625 L40.8495444,15.3251625 C41.3989448,15.3251625 41.8443218,15.7700538 41.8443218,16.3188549 L41.8443218,19.3993013 L41.8841129,19.4291121 Z" id="形状" fill="#666666" fill-rule="nonzero"></path>
    </g>
</svg>