<?xml version="1.0" encoding="UTF-8"?>
<svg width="48px" height="48px" viewBox="0 0 48 48" version="1.1" xmlns="http://www.w3.org/2000/svg" xmlns:xlink="http://www.w3.org/1999/xlink">
    <!-- Generator: Sketch 55 (78076) - https://sketchapp.com -->
    <title>icon/通用/我的/意见反馈</title>
    <desc>Created with Sketch.</desc>
    <g id="icon/通用/我的/意见反馈" stroke="none" stroke-width="1" fill="none" fill-rule="evenodd">
        <g id="编组" transform="translate(8.000000, 7.000000)" fill="#666666">
            <path d="M21.1666667,0.921052632 L21.1666667,0.921052632 C21.1666667,1.42973595 20.7542974,1.84210526 20.245614,1.84210526 L2.75,1.84210526 C2.24373898,1.84210526 1.83333333,2.25447457 1.83333333,2.76315789 L1.83333333,32.2368421 C1.83333333,32.7455254 2.24373898,33.1578947 2.75,33.1578947 L30.25,33.1578947 C30.756261,33.1578947 31.1666667,32.7455254 31.1666667,32.2368421 L31.1666667,9.73245614 C31.1666667,9.22619512 31.5770723,8.81578947 32.0833333,8.81578947 L32.0833333,8.81578947 C32.5895944,8.81578947 33,9.22619512 33,9.73245614 L33,32.2368421 C33,33.7628921 31.7687831,35 30.25,35 L2.75,35 C1.23121694,35 -3.55271368e-15,33.7628921 -3.55271368e-15,32.2368421 L-3.55271368e-15,2.76315789 C-3.55271368e-15,1.23710793 1.23121694,6.88338275e-15 2.75,6.88338275e-15 L20.245614,-1.11022302e-16 C20.7542974,1.60274028e-15 21.1666667,0.412369309 21.1666667,0.921052632 Z" id="路径" fill-rule="nonzero"></path>
            <rect id="矩形" x="7" y="20" width="19" height="2" rx="1"></rect>
            <rect id="矩形复制-2" transform="translate(24.131728, 8.131728) rotate(-45.000000) translate(-24.131728, -8.131728) " x="14.131728" y="6.63172798" width="20" height="3" rx="1.5"></rect>
            <path d="M8,26 L25,26 C25.5522847,26 26,26.4477153 26,27 L26,27 C26,27.5522847 25.5522847,28 25,28 L8,28 C7.44771525,28 7,27.5522847 7,27 L7,27 C7,26.4477153 7.44771525,26 8,26 Z" id="矩形复制"></path>
        </g>
    </g>
</svg>