<?xml version="1.0" encoding="UTF-8"?>
<svg width="44px" height="44px" viewBox="0 0 44 44" version="1.1" xmlns="http://www.w3.org/2000/svg" xmlns:xlink="http://www.w3.org/1999/xlink">
    <!-- Generator: Sketch 55 (78076) - https://sketchapp.com -->
    <title>icon/通用/微信支付</title>
    <desc>Created with Sketch.</desc>
    <g id="icon/通用/微信支付" stroke="none" stroke-width="1" fill="none" fill-rule="evenodd">
        <g id="编组-13" transform="translate(2.000000, 2.000000)">
            <rect id="矩形" fill="#51AA38" x="0" y="0" width="40" height="40" rx="4"></rect>
            <path d="M16.6744015,23.3719924 C14.9985156,24.3117252 14.7499497,22.8444225 14.7499497,22.8444225 L12.6495864,17.9146263 C11.8414231,15.5720476 13.3490305,16.8583904 13.3490305,16.8583904 C13.3490305,16.8583904 14.6426311,17.842709 15.6243949,18.4425144 C16.6056335,19.0423198 17.7240929,18.618595 17.7240929,18.618595 L31.4552712,12.2438066 C28.921922,9.07318958 24.7370569,7 19.9992822,7 C12.2673011,7 6,12.5172265 6,19.3234476 C6,23.2383409 8.07529309,26.7227208 11.3078063,28.9810778 L10.7248545,32.3516064 C10.7248545,32.3516064 10.440679,33.3356068 11.4255591,32.8792116 C12.0966768,32.5680299 13.8075768,31.4529237 14.8260356,30.774271 C16.427131,31.3354659 18.1714697,31.647072 20.0000525,31.647072 C27.7314034,31.647072 34,26.1298455 34,19.3234829 C34,17.3520524 33.4717754,15.4902656 32.5360903,13.8376893 C28.161308,16.4851915 17.9857542,22.6378991 16.6744015,23.3719924 L16.6744015,23.3719924 L16.6744015,23.3719924 Z" id="路径" fill="#FFFFFF" fill-rule="nonzero"></path>
        </g>
    </g>
</svg>