<?xml version="1.0" standalone="no"?><!DOCTYPE svg PUBLIC "-//W3C//DTD SVG 1.1//EN" "http://www.w3.org/Graphics/SVG/1.1/DTD/svg11.dtd"><svg t="1556244505835" class="icon" style="" viewBox="0 0 1024 1024" version="1.1" xmlns="http://www.w3.org/2000/svg" p-id="1675" xmlns:xlink="http://www.w3.org/1999/xlink" width="200" height="200"><defs><style type="text/css"></style></defs><path d="M874.666667 42.666667H149.333333a106.666667 106.666667 0 0 0-106.666666 106.666666v725.333334a106.666667 106.666667 0 0 0 106.666666 106.666666h725.333334a106.666667 106.666667 0 0 0 85.333333-43.946666A106.666667 106.666667 0 0 0 981.333333 874.666667V149.333333a106.666667 106.666667 0 0 0-106.666666-106.666666zM106.666667 557.44l85.333333-85.333333L360.106667 640 109.866667 890.453333a42.666667 42.666667 0 0 0 5.76 10.026667A42.666667 42.666667 0 0 1 106.666667 874.666667z m10.24 344.746667a42.666667 42.666667 0 0 0 7.68 7.253333 42.666667 42.666667 0 0 1-7.68-7.253333z m21.333333 13.44A42.666667 42.666667 0 0 0 149.333333 917.333333a42.666667 42.666667 0 0 1-11.306666-1.706666z m-12.586667-5.76a42.666667 42.666667 0 0 0 9.813334 4.906666 42.666667 42.666667 0 0 1-10.026667-4.906666zM917.333333 874.666667a39.466667 39.466667 0 0 1-3.2 15.786666A42.666667 42.666667 0 0 1 874.666667 917.333333H173.44L405.333333 685.44 450.56 640 682.666667 408.106667l234.666666 234.666666z m0-322.346667l-234.666666-234.666667-277.333334 277.333334-213.333333-213.333334-85.333333 85.333334V149.333333a42.666667 42.666667 0 0 1 42.666666-42.666666h725.333334a42.666667 42.666667 0 0 1 42.666666 42.666666z" p-id="1676" fill="#cdcdcd"></path><path d="M405.333333 213.333333a85.333333 85.333333 0 1 1-85.333333 85.333334 85.333333 85.333333 0 0 1 85.333333-85.333334m0-64a149.333333 149.333333 0 1 0 149.333334 149.333334 149.333333 149.333333 0 0 0-149.333334-149.333334z" fill="#cdcdcd" p-id="1677"></path></svg>